{"asset":{"version":"2.0","generator":"Unity 2021.3.21f1 glTFast 4.8.3"},"nodes":[{"name":"Brainstem","mesh":0,"rotation":[0,-0.7071068,-0.7071068,0],"scale":[100,100,100]},{"name":"Cerebellum","mesh":1,"rotation":[0,-0.7071068,-0.7071068,0],"scale":[100,100,100]},{"name":"Dense matter","mesh":2,"rotation":[0,-0.7071068,-0.7071068,0],"scale":[100,100,100]},{"name":"Grey matter","mesh":3,"rotation":[0,-0.7071068,-0.7071068,0],"scale":[100,100,100]},{"name":"Skin","mesh":4,"rotation":[0,-0.7071068,-0.7071068,0],"scale":[100,100,100]},{"name":"Vasculature","mesh":5,"rotation":[0,-0.7071068,-0.7071068,0],"scale":[100,100,100]},{"name":"White matter","mesh":6,"rotation":[0,-0.7071068,-0.7071068,0],"scale":[100,100,100]},{"name":"Brain","children":[0,1,2,3,4,5,6],"scale":[0.001,0.001,0.001]}],"buffers":[{"uri":"Brain.bin","byteLength":68157280}],"bufferViews":[{"buffer":0,"byteLength":76176},{"buffer":0,"byteLength":921320,"byteOffset":76176,"byteStride":40},{"buffer":0,"byteLength":275448,"byteOffset":997496},{"buffer":0,"byteLength":2566160,"byteOffset":1272944,"byteStride":40},{"buffer":0,"byteLength":222744,"byteOffset":3839104},{"buffer":0,"byteLength":2510680,"byteOffset":4061848,"byteStride":40},{"buffer":0,"byteLength":2499360,"byteOffset":6572528},{"buffer":0,"byteLength":22801360,"byteOffset":9071888,"byteStride":40},{"buffer":0,"byteLength":2671968,"byteOffset":31873248},{"buffer":0,"byteLength":18224040,"byteOffset":34545216,"byteStride":40},{"buffer":0,"byteLength":812952,"byteOffset":52769256},{"buffer":0,"byteLength":7612680,"byteOffset":53582208,"byteStride":40},{"buffer":0,"byteLength":875472,"byteOffset":61194888},{"buffer":0,"byteLength":6086920,"byteOffset":62070360,"byteStride":40}],"accessors":[{"bufferView":1,"componentType":5126,"count":23033,"type":"VEC3","max":[0.232666939,0.338100463,0.0196888447],"min":[-0.08798173,0.002969563,-0.5486365]},{"bufferView":1,"componentType":5126,"count":23033,"type":"VEC3","byteOffset":12},{"bufferView":1,"componentType":5126,"count":23033,"type":"VEC4","byteOffset":24},{"bufferView":0,"componentType":5123,"count":38088,"type":"SCALAR"},{"bufferView":3,"componentType":5126,"count":64154,"type":"VEC3","max":[0.5423602,0.7449455,0.177691236],"min":[-0.47662577,0.159577966,-0.385910869]},{"bufferView":3,"componentType":5126,"count":64154,"type":"VEC3","byteOffset":12},{"bufferView":3,"componentType":5126,"count":64154,"type":"VEC4","byteOffset":24},{"bufferView":2,"componentType":5123,"count":137724,"type":"SCALAR"},{"bufferView":5,"componentType":5126,"count":62767,"type":"VEC3","max":[0.176048815,0.480205655,0.46790573],"min":[-0.455169857,-0.100494459,-0.154031783]},{"bufferView":5,"componentType":5126,"count":62767,"type":"VEC3","byteOffset":12},{"bufferView":5,"componentType":5126,"count":62767,"type":"VEC4","byteOffset":24},{"bufferView":4,"componentType":5123,"count":111372,"type":"SCALAR"},{"bufferView":7,"componentType":5126,"count":570034,"type":"VEC3","max":[0.7455385,0.864911258,0.8838339],"min":[-0.6237836,-0.691775739,-0.184419274]},{"bufferView":7,"componentType":5126,"count":570034,"type":"VEC3","byteOffset":12},{"bufferView":7,"componentType":5126,"count":570034,"type":"VEC4","byteOffset":24},{"bufferView":6,"componentType":5125,"count":624840,"type":"SCALAR"},{"bufferView":9,"componentType":5126,"count":455601,"type":"VEC3","max":[0.8316307,1.03241336,1.13618553],"min":[-0.6937132,-0.9545759,-0.931832433]},{"bufferView":9,"componentType":5126,"count":455601,"type":"VEC3","byteOffset":12},{"bufferView":9,"componentType":5126,"count":455601,"type":"VEC4","byteOffset":24},{"bufferView":8,"componentType":5125,"count":667992,"type":"SCALAR"},{"bufferView":11,"componentType":5126,"count":190317,"type":"VEC3","max":[0.7564118,0.8053979,0.614291],"min":[-0.5876589,-0.764854,-0.5931621]},{"bufferView":11,"componentType":5126,"count":190317,"type":"VEC3","byteOffset":12},{"bufferView":11,"componentType":5126,"count":190317,"type":"VEC4","byteOffset":24},{"bufferView":10,"componentType":5125,"count":203238,"type":"SCALAR"},{"bufferView":13,"componentType":5126,"count":152173,"type":"VEC3","max":[0.746154547,0.883581042,0.95232594],"min":[-0.6260097,-0.6923107,-0.211489439]},{"bufferView":13,"componentType":5126,"count":152173,"type":"VEC3","byteOffset":12},{"bufferView":13,"componentType":5126,"count":152173,"type":"VEC4","byteOffset":24},{"bufferView":12,"componentType":5125,"count":218868,"type":"SCALAR"}],"materials":[{"name":"Brainstem","pbrMetallicRoughness":{"baseColorFactor":[0.53773576,0.382059932,0.218138069,1],"metallicFactor":0,"roughnessFactor":0.5}},{"name":"Cerebellum","pbrMetallicRoughness":{"baseColorFactor":[0.5319394,0.21960777,0.5372549,1],"metallicFactor":0,"roughnessFactor":0.5}},{"name":"Dense matter","pbrMetallicRoughness":{"baseColorFactor":[0.5566037,0.2771395,0.204788148,1],"metallicFactor":0,"roughnessFactor":0.5}},{"name":"Grey matter","pbrMetallicRoughness":{"baseColorFactor":[0.386792451,0.350468427,0.1204165,1],"metallicFactor":0,"roughnessFactor":0.5}},{"name":"Skin","pbrMetallicRoughness":{"baseColorFactor":[0.6886792,0.530065835,0.2923638,1],"metallicFactor":0,"roughnessFactor":0.5}},{"name":"Vasculature","pbrMetallicRoughness":{"baseColorFactor":[0.5566037,0.0735136941,0.0735136941,1],"metallicFactor":0,"roughnessFactor":0.5}},{"name":"White matter","pbrMetallicRoughness":{"baseColorFactor":[0.3906194,0.511097848,0.53773576,1],"metallicFactor":0,"roughnessFactor":0.5}}],"meshes":[{"name":"Brainstem","primitives":[{"attributes":{"POSITION":0,"NORMAL":1,"TANGENT":2},"indices":3,"material":0}]},{"name":"Cerebellum","primitives":[{"attributes":{"POSITION":4,"NORMAL":5,"TANGENT":6},"indices":7,"material":1}]},{"name":"Dense matter","primitives":[{"attributes":{"POSITION":8,"NORMAL":9,"TANGENT":10},"indices":11,"material":2}]},{"name":"Grey matter","primitives":[{"attributes":{"POSITION":12,"NORMAL":13,"TANGENT":14},"indices":15,"material":3}]},{"name":"Skin","primitives":[{"attributes":{"POSITION":16,"NORMAL":17,"TANGENT":18},"indices":19,"material":4}]},{"name":"Vasculature","primitives":[{"attributes":{"POSITION":20,"NORMAL":21,"TANGENT":22},"indices":23,"material":5}]},{"name":"White matter","primitives":[{"attributes":{"POSITION":24,"NORMAL":25,"TANGENT":26},"indices":27,"material":6}]}],"scene":0,"scenes":[{"name":"Brain","nodes":[7]}]}