{"asset":{"version":"2.0","generator":"Unity 2021.3.21f1 glTFast 4.8.3"},"nodes":[{"name":"Aorta","mesh":0,"translation":[0,-1655,-96],"rotation":[-0.7071068,0,0,0.7071067],"scale":[100,100,100]},{"name":"Heart","mesh":1,"translation":[0,-1655.00012,-96.0000153],"rotation":[-0.7071068,0,0,0.7071067],"scale":[100,100,100]},{"name":"Left atrium","mesh":2,"translation":[0,-1655.00012,-96.0000153],"rotation":[-0.7071068,0,0,0.7071067],"scale":[100,100,100]},{"name":"Left ventriculum","mesh":3,"translation":[0,-1655.00012,-96.0000153],"rotation":[-0.7071068,0,0,0.7071067],"scale":[100,100,100]},{"name":"Mitral valve","mesh":4,"translation":[0,-1655.00012,-96.0000153],"rotation":[-0.7071068,0,0,0.7071067],"scale":[100,100,100]},{"name":"Spine","mesh":5,"translation":[0,-1655.00012,-96.0000153],"rotation":[-0.7071068,0,0,0.7071067],"scale":[100,100,100]},{"name":"Heart","children":[0,1,2,3,4,5],"scale":[0.001,0.001,0.001]}],"buffers":[{"uri":"Heart.bin","byteLength":97837048}],"bufferViews":[{"buffer":0,"byteLength":1713216},{"buffer":0,"byteLength":7828800,"byteOffset":1713216,"byteStride":40},{"buffer":0,"byteLength":3191736,"byteOffset":9542016},{"buffer":0,"byteLength":25161520,"byteOffset":12733752,"byteStride":40},{"buffer":0,"byteLength":1878504,"byteOffset":37895272},{"buffer":0,"byteLength":9243640,"byteOffset":39773776,"byteStride":40},{"buffer":0,"byteLength":2305032,"byteOffset":49017416},{"buffer":0,"byteLength":10432280,"byteOffset":51322448,"byteStride":40},{"buffer":0,"byteLength":1392624,"byteOffset":61754728},{"buffer":0,"byteLength":4570440,"byteOffset":63147352,"byteStride":40},{"buffer":0,"byteLength":3068016,"byteOffset":67717792},{"buffer":0,"byteLength":27051240,"byteOffset":70785808,"byteStride":40}],"accessors":[{"bufferView":1,"componentType":5126,"count":195720,"type":"VEC3","max":[0.327879518,-0.971913159,17.4776459],"min":[-0.17130807,-1.95382571,15.898797]},{"bufferView":1,"componentType":5126,"count":195720,"type":"VEC3","byteOffset":12},{"bufferView":1,"componentType":5126,"count":195720,"type":"VEC4","byteOffset":24},{"bufferView":0,"componentType":5125,"count":428304,"type":"SCALAR"},{"bufferView":3,"componentType":5126,"count":629038,"type":"VEC3","max":[0.9292319,-0.681717157,17.4792366],"min":[-0.815075159,-2.15851951,16.107914]},{"bufferView":3,"componentType":5126,"count":629038,"type":"VEC3","byteOffset":12},{"bufferView":3,"componentType":5126,"count":629038,"type":"VEC4","byteOffset":24},{"bufferView":2,"componentType":5125,"count":797934,"type":"SCALAR"},{"bufferView":5,"componentType":5126,"count":231091,"type":"VEC3","max":[0.554010332,-1.21145916,17.2048264],"min":[-0.289384663,-1.716289,16.5529633]},{"bufferView":5,"componentType":5126,"count":231091,"type":"VEC3","byteOffset":12},{"bufferView":5,"componentType":5126,"count":231091,"type":"VEC4","byteOffset":24},{"bufferView":4,"componentType":5125,"count":469626,"type":"SCALAR"},{"bufferView":7,"componentType":5126,"count":260807,"type":"VEC3","max":[0.820898056,-1.40118527,17.0484772],"min":[0.000810563564,-2.07683468,16.1652336]},{"bufferView":7,"componentType":5126,"count":260807,"type":"VEC3","byteOffset":12},{"bufferView":7,"componentType":5126,"count":260807,"type":"VEC4","byteOffset":24},{"bufferView":6,"componentType":5125,"count":576258,"type":"SCALAR"},{"bufferView":9,"componentType":5126,"count":114261,"type":"VEC3","max":[0.410720825,-1.42853379,16.9226646],"min":[-0.045977354,-1.68755841,16.6305656]},{"bufferView":9,"componentType":5126,"count":114261,"type":"VEC3","byteOffset":12},{"bufferView":9,"componentType":5126,"count":114261,"type":"VEC4","byteOffset":24},{"bufferView":8,"componentType":5125,"count":348156,"type":"SCALAR"},{"bufferView":11,"componentType":5126,"count":676281,"type":"VEC3","max":[0.3437345,-0.648541451,17.4791851],"min":[-0.814593434,-1.08073235,15.8973408]},{"bufferView":11,"componentType":5126,"count":676281,"type":"VEC3","byteOffset":12},{"bufferView":11,"componentType":5126,"count":676281,"type":"VEC4","byteOffset":24},{"bufferView":10,"componentType":5125,"count":767004,"type":"SCALAR"}],"materials":[{"name":"Aorta","pbrMetallicRoughness":{"baseColorFactor":[0.745283,0.397460967,0.175774276,1],"metallicFactor":0,"roughnessFactor":0.5}},{"name":"Heart","pbrMetallicRoughness":{"baseColorFactor":[0.424528271,0.092114605,0.092114605,1],"metallicFactor":0,"roughnessFactor":0.5}},{"name":"Left atrium","pbrMetallicRoughness":{"baseColorFactor":[0.509434,0.221075088,0.458757639,1],"metallicFactor":0,"roughnessFactor":0.5}},{"name":"Left ventriculum","pbrMetallicRoughness":{"baseColorFactor":[0.5372549,0.0470588,0.1947993,1],"metallicFactor":0,"roughnessFactor":0.5}},{"name":"Mitral valve","pbrMetallicRoughness":{"baseColorFactor":[0.05473475,0.386792451,0.3072946,1],"metallicFactor":0,"roughnessFactor":0.5}},{"name":"Spine","pbrMetallicRoughness":{"baseColorFactor":[0.6698113,0.6219767,0.4612851,1],"metallicFactor":0,"roughnessFactor":0.5}}],"meshes":[{"name":"Aorta","primitives":[{"attributes":{"POSITION":0,"NORMAL":1,"TANGENT":2},"indices":3,"material":0}]},{"name":"Heart","primitives":[{"attributes":{"POSITION":4,"NORMAL":5,"TANGENT":6},"indices":7,"material":1}]},{"name":"Left atrium","primitives":[{"attributes":{"POSITION":8,"NORMAL":9,"TANGENT":10},"indices":11,"material":2}]},{"name":"Left ventriculum","primitives":[{"attributes":{"POSITION":12,"NORMAL":13,"TANGENT":14},"indices":15,"material":3}]},{"name":"Mitral valve","primitives":[{"attributes":{"POSITION":16,"NORMAL":17,"TANGENT":18},"indices":19,"material":4}]},{"name":"Spine","primitives":[{"attributes":{"POSITION":20,"NORMAL":21,"TANGENT":22},"indices":23,"material":5}]}],"scene":0,"scenes":[{"name":"Heart","nodes":[6]}]}